<svg viewBox="0 0 32 32" xmlns="http://www.w3.org/2000/svg"><g data-name="Layer 2"><path d="M16 29a13 13 0 1 1 13-13 13 13 0 0 1-13 13Zm0-24a11 11 0 1 0 11 11A11 11 0 0 0 16 5Z" fill="#3b79be" class="fill-000000"></path><path d="M16 17a5 5 0 1 1 5-5 5 5 0 0 1-5 5Zm0-8a3 3 0 1 0 3 3 3 3 0 0 0-3-3ZM25.55 24a1 1 0 0 1-.74-.32A11.35 11.35 0 0 0 16.46 20h-.92a11.27 11.27 0 0 0-7.85 3.16 1 1 0 0 1-1.38-1.44A13.24 13.24 0 0 1 15.54 18h.92a13.39 13.39 0 0 1 9.82 4.32 1 1 0 0 1-.73 1.68Z" fill="#3b79be" class="fill-000000"></path></g><path d="M0 0h32v32H0z" fill="none"></path></svg>