<svg width="41" height="41" viewBox="0 0 41 41" fill="none" xmlns="http://www.w3.org/2000/svg">
<circle cx="20.5" cy="20.5" r="20.5" fill="#2196F3"/>
<path d="M13 13C12.4696 13 11.9609 13.2107 11.5858 13.5858C11.2107 13.9609 11 14.4696 11 15V19C11.5304 19 12.0391 19.2107 12.4142 19.5858C12.7893 19.9609 13 20.4696 13 21C13 21.5304 12.7893 22.0391 12.4142 22.4142C12.0391 22.7893 11.5304 23 11 23V27C11 27.5304 11.2107 28.0391 11.5858 28.4142C11.9609 28.7893 12.4696 29 13 29H29C29.5304 29 30.0391 28.7893 30.4142 28.4142C30.7893 28.0391 31 27.5304 31 27V23C30.4696 23 29.9609 22.7893 29.5858 22.4142C29.2107 22.0391 29 21.5304 29 21C29 20.4696 29.2107 19.9609 29.5858 19.5858C29.9609 19.2107 30.4696 19 31 19V15C31 14.4696 30.7893 13.9609 30.4142 13.5858C30.0391 13.2107 29.5304 13 29 13H13ZM13 15H29V17.54C27.76 18.25 27 19.57 27 21C27 22.43 27.76 23.75 29 24.46V27H13V24.46C14.24 23.75 15 22.43 15 21C15 19.57 14.24 18.25 13 17.54V15Z" fill="white"/>
</svg>
